<?xml version="1.0" standalone="no"?>
<!DOCTYPE svg PUBLIC "-//W3C//DTD SVG 20010904//EN"
 "http://www.w3.org/TR/2001/REC-SVG-20010904/DTD/svg10.dtd">
<svg version="1.0" xmlns="http://www.w3.org/2000/svg"
 width="1892.000000pt" height="582.000000pt" viewBox="0 0 1892.000000 582.000000"
 preserveAspectRatio="xMidYMid meet">

<g transform="translate(0.000000,582.000000) scale(0.100000,-0.100000)"
fill="#000000" stroke="none">
<path d="M0 2910 l0 -2910 9460 0 9460 0 0 2910 0 2910 -9460 0 -9460 0 0
-2910z m3819 2665 c324 -86 540 -485 541 -1002 1 -438 -164 -907 -428 -1216
-88 -104 -84 -121 81 -289 160 -162 246 -281 331 -453 108 -220 144 -361 153
-600 4 -134 2 -180 -15 -280 -100 -582 -540 -1075 -1190 -1334 -427 -170 -961
-217 -1427 -125 -756 149 -1361 630 -1565 1244 -97 294 -92 642 15 940 68 189
203 402 358 566 128 135 131 162 31 276 -362 410 -521 1081 -384 1624 115 457
424 705 767 616 263 -70 504 -301 674 -647 38 -77 85 -189 104 -249 75 -230
111 -505 95 -733 -9 -140 -6 -156 38 -194 l36 -31 95 8 c53 5 179 9 281 9 195
0 218 5 241 48 9 15 13 103 14 282 1 226 4 274 23 367 60 288 165 542 311 748
100 142 275 301 401 366 134 68 298 92 419 59z m4754 -1 c170 -44 312 -177
411 -384 183 -383 166 -938 -44 -1420 -64 -147 -125 -245 -282 -448 -30 -37
-37 -87 -18 -123 6 -11 50 -56 97 -102 337 -323 513 -711 513 -1130 0 -409
-165 -785 -484 -1102 -406 -403 -1006 -635 -1646 -635 -502 0 -966 136 -1356
399 -642 431 -918 1129 -704 1781 78 240 195 429 392 637 73 78 78 85 78 127
0 37 -7 52 -40 93 -157 190 -233 313 -309 497 -182 443 -200 956 -47 1333 217
532 701 616 1112 192 44 -46 102 -113 128 -148 114 -156 220 -386 276 -595 56
-212 63 -272 65 -536 1 -266 4 -278 56 -306 28 -14 50 -14 188 -5 86 6 211 10
278 9 122 -3 122 -3 150 25 l28 27 1 248 c1 256 9 337 54 513 117 458 383 844
687 996 142 71 287 91 416 57z m9436 1 c172 -46 311 -173 411 -379 255 -524
122 -1343 -299 -1839 -88 -104 -83 -121 83 -289 245 -248 381 -486 453 -788
36 -156 43 -383 15 -545 -122 -712 -766 -1293 -1617 -1459 -306 -60 -695 -60
-1000 0 -756 149 -1361 630 -1565 1244 -97 294 -92 642 15 940 68 189 203 402
358 566 128 135 131 162 31 276 -362 410 -521 1081 -384 1624 115 457 424 705
767 616 261 -69 502 -299 672 -643 37 -74 84 -184 104 -245 76 -229 113 -511
97 -741 -9 -140 -6 -156 38 -194 l36 -31 95 8 c53 5 179 9 281 9 195 0 218 5
241 48 9 15 13 103 14 282 1 226 4 274 23 367 60 288 165 542 311 748 100 142
275 301 401 366 134 68 298 92 419 59z m-4716 -35 c85 -26 146 -61 213 -123
408 -372 405 -1302 -6 -1912 -26 -38 -73 -101 -104 -139 -95 -116 -92 -133 52
-275 257 -253 401 -503 472 -816 33 -142 38 -368 12 -520 -45 -260 -153 -497
-324 -711 -28 -35 -54 -64 -56 -64 -3 0 -2 17 1 38 23 146 28 260 13 331 -42
200 -207 399 -419 505 -109 55 -182 75 -297 83 -111 7 -227 -15 -328 -63 -69
-33 -93 -52 -237 -200 -192 -196 -209 -206 -362 -212 -208 -9 -310 40 -442
211 -132 171 -215 233 -376 278 -64 19 -106 23 -210 24 -152 0 -217 -14 -345
-77 -120 -58 -240 -178 -298 -298 -66 -134 -77 -190 -76 -375 1 -154 10 -213
49 -330 13 -41 -169 163 -236 263 -168 251 -245 484 -256 772 -7 189 11 320
67 490 78 237 193 423 397 640 94 101 95 132 8 232 -323 368 -487 931 -420
1441 35 269 128 481 275 627 261 261 606 221 921 -107 114 -119 180 -216 264
-388 144 -293 199 -551 193 -907 l-3 -208 32 -32 c28 -27 40 -32 75 -31 24 1
151 3 284 6 154 3 249 9 262 16 46 25 51 54 45 247 -11 344 54 648 202 946
237 473 634 738 958 638z m-2212 -3819 c86 -33 130 -70 219 -185 45 -58 104
-126 133 -151 59 -52 165 -106 252 -130 83 -22 256 -30 339 -16 160 28 257 90
416 268 114 126 166 166 251 188 209 56 452 -48 587 -249 71 -106 79 -150 59
-314 -9 -71 -28 -165 -42 -209 -74 -236 -276 -389 -697 -527 -304 -101 -564
-146 -833 -146 -495 1 -827 130 -1140 445 -152 154 -212 287 -222 495 -6 135
5 209 47 297 53 115 154 200 289 245 79 26 262 20 342 -11z"/>
<path d="M2030 2810 c-182 -34 -242 -256 -103 -381 81 -73 199 -74 283 -1 171
146 40 423 -180 382z"/>
<path d="M2629 2782 c-172 -89 -150 -343 35 -402 93 -30 198 8 253 92 25 36
28 51 28 119 0 70 -3 82 -30 121 -20 28 -49 52 -84 71 -73 36 -131 36 -202 -1z"/>
<path d="M1759 2067 c-119 -34 -223 -134 -300 -292 -179 -365 -121 -711 165
-983 63 -60 97 -82 200 -132 369 -178 536 -183 1076 -28 225 64 286 94 375
183 99 100 159 208 202 366 26 94 23 288 -5 394 -68 251 -240 458 -411 495
-119 25 -214 -1 -387 -107 -227 -138 -279 -138 -524 3 -58 34 -131 70 -162 82
-74 28 -170 35 -229 19z m152 -234 c23 -9 96 -47 162 -84 168 -95 227 -114
352 -113 121 0 181 21 336 114 133 81 175 100 225 100 98 0 211 -143 264 -332
47 -169 9 -359 -100 -504 -63 -84 -105 -105 -347 -172 -299 -84 -363 -95 -497
-90 -129 5 -205 27 -381 113 -95 46 -120 63 -177 124 -113 120 -179 288 -163
421 20 178 110 367 200 421 37 23 72 24 126 2z"/>
<path d="M5694 2681 c-59 -36 -69 -124 -19 -171 13 -12 68 -42 122 -65 54 -23
160 -70 236 -104 202 -90 278 -114 367 -114 109 0 178 34 320 158 76 66 89 86
90 139 0 53 -52 106 -105 106 -47 0 -63 -9 -159 -92 -45 -37 -97 -73 -116 -79
-48 -15 -121 10 -414 141 -137 61 -238 100 -258 100 -18 0 -47 -9 -64 -19z"/>
<path d="M8490 2611 c-52 -21 -166 -68 -253 -104 -86 -37 -184 -74 -217 -82
-57 -15 -63 -15 -103 4 -23 10 -80 53 -126 95 -76 69 -88 76 -125 76 -23 0
-52 -7 -64 -16 -48 -33 -66 -109 -37 -151 25 -35 133 -135 189 -174 158 -111
248 -102 645 65 108 45 214 89 236 97 73 27 105 107 68 170 -18 30 -67 59
-100 59 -10 0 -61 -18 -113 -39z"/>
<path d="M7015 1686 c-191 -44 -339 -154 -412 -305 -67 -138 -56 -311 26 -439
75 -115 207 -209 352 -248 87 -24 261 -24 349 0 138 37 281 138 348 244 95
148 96 346 2 492 -70 109 -198 201 -340 245 -75 23 -248 29 -325 11z m307
-245 c61 -23 150 -96 173 -141 8 -15 19 -48 25 -73 33 -130 -93 -279 -268
-316 -291 -61 -550 163 -441 379 20 41 92 111 138 134 97 51 264 58 373 17z"/>
<path d="M15695 3274 c-248 -62 -456 -273 -510 -520 -26 -113 -17 -282 20
-388 121 -346 508 -543 860 -436 306 94 514 395 491 714 -12 169 -80 319 -201
441 -81 82 -165 135 -274 172 -96 33 -289 42 -386 17z m320 -235 c82 -27 161
-84 217 -156 139 -183 129 -431 -23 -597 -97 -107 -208 -156 -348 -156 -129 0
-239 46 -331 139 -185 184 -180 484 9 665 130 123 302 161 476 105z"/>
<path d="M17355 3195 c-345 -77 -578 -387 -551 -732 22 -295 227 -542 516
-622 92 -26 244 -28 339 -5 36 9 104 34 151 57 69 33 102 58 176 132 75 74 99
106 132 175 53 110 72 192 71 315 0 153 -32 262 -113 384 -129 193 -351 312
-581 310 -44 0 -107 -7 -140 -14z m260 -229 c286 -76 430 -385 305 -654 -40
-85 -137 -182 -222 -222 -199 -93 -438 -35 -570 137 -108 143 -128 329 -53
491 29 62 122 163 183 199 100 59 246 79 357 49z"/>
<path d="M18304 1891 c-23 -11 -75 -50 -115 -87 -159 -146 -306 -237 -475
-293 -352 -118 -755 -84 -1386 119 -87 27 -229 73 -315 101 -400 128 -618 162
-796 124 -223 -47 -393 -262 -374 -470 20 -217 189 -422 498 -606 280 -167
617 -281 1009 -342 185 -29 577 -30 755 -3 455 69 808 237 1083 516 301 304
454 732 320 894 -54 66 -126 82 -204 47z m-2779 -265 c127 -23 219 -48 570
-161 359 -116 600 -181 795 -215 177 -32 508 -39 652 -15 264 44 488 143 688
304 47 38 87 67 89 66 7 -7 -33 -112 -71 -190 -59 -118 -140 -225 -253 -333
-232 -223 -496 -347 -890 -418 -80 -15 -153 -18 -365 -18 -244 0 -277 2 -422
27 -424 75 -785 221 -1035 422 -131 105 -200 204 -210 299 -11 102 65 203 177
237 42 12 190 10 275 -5z"/>
<path d="M10963 3100 c-291 -76 -503 -302 -503 -537 0 -89 40 -137 114 -137
67 0 116 60 116 142 0 119 149 262 321 307 65 18 187 19 239 4 57 -17 128 -77
168 -142 30 -49 36 -68 40 -135 6 -93 22 -129 67 -148 44 -18 59 -18 100 2 45
21 65 67 65 147 0 211 -169 433 -378 497 -86 27 -248 27 -349 0z"/>
<path d="M12633 3015 c-150 -42 -289 -157 -358 -297 -46 -94 -60 -208 -31
-253 66 -100 215 -47 216 77 1 74 73 175 160 222 138 75 340 26 486 -119 87
-86 114 -147 114 -260 0 -69 2 -75 31 -104 26 -26 38 -31 79 -31 69 0 106 38
116 117 39 317 -289 645 -661 659 -68 3 -117 -1 -152 -11z"/>
</g>
</svg>
